<?xml version="1.0" encoding="UTF-8"?>
<svg id="Layer_1" data-name="Layer 1" xmlns="http://www.w3.org/2000/svg" viewBox="0 0 520 600">
  <defs>
    <style>
      .cls-1 {
        fill: #0f3d2e;
      }
    </style>
  </defs>
  <path class="cls-1" d="M102,494.78c-7.6,9.32-10.33-28-10.16-31.75,4.13-94.07,160.69-105.05,168-193.63,1.58-19.13-4.7-33.96-3.78-52.15,33.56,36.58,29.75,95.42-4.07,130.86-51.05,53.49-151.78,51.82-149.99,146.67Z"/>
  <path class="cls-1" d="M346.46,298.72c3.09,19.03,2.89,37.63-.65,56.64-17.94,96.55-126.43,126.99-161.48,215.37-2.17,5.47.03,17.56-8.46,15.72-7.82-97.64,100.86-138.16,139.72-215.47,10.5-20.88,16.13-47.75,25.54-68.67,1.36-3.02-1.21-4.61,5.33-3.59Z"/>
  <path class="cls-1" d="M169.56,88.77c-3.65,3.2-6.28,7.56-11.5,8.79,1.38-43.39,60.48-67.14,97.75-63.38,72.62,7.33,117.11,69.45,189.28,85.7,4.76,1.07,23.08-1.54,21.04,6.92-1.71,7.07-39.59,14.64-48.47,12.98-36.08-6.72-69.71-47.58-100.03-63.06-51.51-26.3-103.84-26.75-148.08,12.04Z"/>
  <path class="cls-1" d="M506.89,423.47c-18.53-1.62-32.83-24.54-40.01-40.18-24.56-53.51-24.14-118.38-52.1-171.98-3.43-6.57-24.52-31.2-19.9-37.36,26.86,17.57,46.81,26.98,61.53,56.85,30.79,62.5,10.22,134.91,50.48,192.67Z"/>
  <path class="cls-1" d="M491.6,227.41c-2.13,2.03-11.91-5.33-14.57-7.05-71.76-46.55-118.05-95.6-213.31-95.01-22.38.14-51.34,15.25-59.85-17.59,12.45,1.14,24.95-4.19,36.96-5.06,84.23-6.13,178.38,33.85,232.88,98.07,2.32,2.74,19.61,25.01,17.89,26.65Z"/>
  <path class="cls-1" d="M346.49,499.88c34.79-73.72,50.95-140.34,37.48-222.12-1.75-10.6-8.29-21.78-5.69-32.5,12.33,7.86,30.67,20.99,36.27,35.03,14.23,35.67-13.93,117.55-28.69,153.3-9.29,22.49-20.59,50.7-39.36,66.29Z"/>
  <path class="cls-1" d="M346.45,247.78l-31.39-25.88c-26.25-15.5-80.03-37.2-96.94.69-1.2,2.68-5.29,25.55-9.14,22.66-7.35-20.75-15.04-41.8-27.97-59.85,35.38-22.37,93.07-11.67,127.01,10.44,16.65,10.85,37.75,31.08,38.42,51.95Z"/>
  <path class="cls-1" d="M196.23,400.6c-3.71,10.56-13.98,15.86-19.95,24.59-14.83,21.68-35.33,84.94-32.51,110.38,1.41,12.73,12.42,30,19.36,40.68l-17.53.32c-3.35,24.82-11.63,6.84-16.79-5.44-28.93-68.81,1.46-139.59,67.43-170.53Z"/>
  <path class="cls-1" d="M18,298.73c9.14,1.07,9.67,12.26,18.46,15.87,17.94,7.37,40.91-13.03,57.01-20.61,27.28-12.84,54.64-12.77,59.51-51.29,8.5,4.08,5.33,19.3,3.32,27.53-12.43,50.85-95.28,35.91-111.74,84.44-24.18-7.86-29.54-32.56-26.55-55.95Z"/>
  <path class="cls-1" d="M84.16,454.03c-3.93-.15-5.11-11.54-5.04-13.98.25-8.36,4.83-24.58,8.19-32.54,9.79-23.2,46.42-48.76,35.68-75.03-3.64-8.9-13.74-8.13-13.33-15.9,20.81-5.38,38.62-13.39,52.19-30.54,3.72,2.42,3.5,4.89,3.94,8.73,7.39,65.37-76.67,95.98-81.63,159.26Z"/>
  <path class="cls-1" d="M17.99,260.5c5.09-11.91,6.51-26.57,5.09-39.46-1.28-11.65-11.42-23.86-9.79-32.47,2.29-12.14,22.52-17.7,32.84-13.48,8.68,12.06-8.33,19.17-10.19,30.84-7.97,49.98,84.98,32.81,83.83,58.43-.34,7.51-20.73-2.18-24.89-3.08-27.12-5.87-49.74-8.73-76.9-.78Z"/>
  <path class="cls-1" d="M211.5,13.56l-38.23,16.48c-48.71,20.01-19,86.05-73.79,100.61,3.15-10.93,11.94-17.14,16.51-28.03,12.97-30.92,2.83-59.28,37.74-79.4,16.94-9.76,38.54-15.99,57.78-9.67Z"/>
  <path class="cls-1" d="M326.06,426.04c4.72,10.35,18.3,91.19,6.4,91.61-6.45-5.97-2.93-14.94-4.93-23.03-4.43-17.9-16.21-32.59-26.99-46.95,0-5.39,21.46-24.54,25.52-21.64Z"/>
  <path class="cls-1" d="M175.85,145.95c7.31,6.13-34.96,18.38-38.16,19.11-15.29,3.5-30.41,6.4-45.85,1.22,5.58-6.96,16.05-8.33,23.76-13.13,6.11-3.8,11.66-13.31,18.8-14.42,9.25-1.43,28.88,12.28,41.46,7.22Z"/>
</svg>