<?xml version="1.0" encoding="UTF-8"?>
<svg id="Layer_1" data-name="Layer 1" xmlns="http://www.w3.org/2000/svg" viewBox="0 0 600 600">
  <defs>
    <style>
      .cls-1 {
        fill: #0f3d2e;
      }
    </style>
  </defs>
  <g>
    <path class="cls-1" d="M206.24,298.09c-4.51,5.53-6.13-16.62-6.03-18.84,2.45-55.83,95.36-62.34,99.7-114.91.94-11.35-2.79-20.15-2.25-30.95,19.92,21.71,17.65,56.63-2.41,77.66-30.29,31.74-90.07,30.75-89.01,87.04Z"/>
    <path class="cls-1" d="M351.31,181.74c1.83,11.29,1.71,22.33-.38,33.61-10.64,57.29-75.03,75.36-95.83,127.81-1.29,3.25.02,10.42-5.02,9.33-4.64-57.94,59.85-81.99,82.91-127.87,6.23-12.39,9.57-28.33,15.15-40.75.81-1.79-.72-2.73,3.16-2.13Z"/>
    <path class="cls-1" d="M246.33,57.15c-2.16,1.9-3.73,4.48-6.83,5.22.82-25.75,35.89-39.84,58.01-37.61,43.1,4.35,69.49,41.21,112.33,50.86,2.82.64,13.7-.92,12.48,4.11-1.01,4.19-23.5,8.69-28.76,7.71-21.41-3.99-41.37-28.24-59.36-37.42-30.57-15.61-61.62-15.87-87.87,7.14Z"/>
    <path class="cls-1" d="M446.51,255.77c-11-.96-19.48-14.56-23.74-23.84-14.57-31.76-14.32-70.25-30.92-102.06-2.04-3.9-14.55-18.51-11.81-22.17,15.94,10.42,27.78,16.01,36.51,33.74,18.27,37.09,6.06,80.06,29.96,114.33Z"/>
    <path class="cls-1" d="M437.44,139.42c-1.26,1.2-7.07-3.16-8.64-4.19-42.59-27.62-70.05-56.73-126.58-56.38-13.28.08-30.47,9.05-35.52-10.44,7.39.68,14.8-2.49,21.94-3,49.99-3.64,105.86,20.09,138.19,58.2,1.38,1.62,11.63,14.84,10.62,15.81Z"/>
    <path class="cls-1" d="M351.33,301.11c20.64-43.75,30.23-83.28,22.24-131.81-1.04-6.29-4.92-12.93-3.38-19.29,7.32,4.67,18.2,12.46,21.52,20.79,8.45,21.17-8.27,69.76-17.03,90.97-5.51,13.35-12.22,30.09-23.36,39.34Z"/>
    <path class="cls-1" d="M351.3,151.51l-18.62-15.36c-15.58-9.2-47.49-22.07-57.53.41-.71,1.59-3.14,15.16-5.42,13.44-4.36-12.31-8.92-24.81-16.6-35.52,21-13.27,55.23-6.92,75.37,6.2,9.88,6.44,22.4,18.44,22.8,30.83Z"/>
    <path class="cls-1" d="M262.16,242.2c-2.2,6.27-8.3,9.41-11.84,14.59-8.8,12.86-20.97,50.41-19.3,65.5.84,7.56,7.37,17.81,11.49,24.14l-10.41.19c-1.99,14.73-6.9,4.06-9.96-3.23-17.17-40.84.87-82.84,40.01-101.2Z"/>
    <path class="cls-1" d="M156.39,181.75c5.42.63,5.74,7.27,10.96,9.42,10.65,4.37,24.28-7.73,33.83-12.23,16.19-7.62,32.43-7.58,35.31-30.43,5.04,2.42,3.16,11.45,1.97,16.34-7.37,30.17-56.54,21.31-66.31,50.11-14.35-4.66-17.53-19.32-15.75-33.2Z"/>
    <path class="cls-1" d="M195.65,273.9c-2.33-.09-3.03-6.85-2.99-8.3.15-4.96,2.87-14.59,4.86-19.31,5.81-13.77,27.55-28.93,21.17-44.53-2.16-5.28-8.15-4.82-7.91-9.43,12.35-3.19,22.92-7.94,30.97-18.12,2.21,1.44,2.08,2.9,2.34,5.18,4.39,38.79-45.5,56.96-48.44,94.51Z"/>
    <path class="cls-1" d="M156.38,159.06c3.02-7.07,3.86-15.77,3.02-23.41-.76-6.91-6.77-14.16-5.81-19.27,1.36-7.2,13.36-10.51,19.49-8,5.15,7.16-4.94,11.38-6.05,18.3-4.73,29.66,50.43,19.47,49.75,34.67-.2,4.46-12.3-1.29-14.77-1.83-16.1-3.48-29.51-5.18-45.64-.47Z"/>
    <path class="cls-1" d="M271.22,12.52l-22.69,9.78c-28.91,11.87-11.27,51.07-43.79,59.71,1.87-6.48,7.09-10.17,9.8-16.63,7.7-18.35,1.68-35.18,22.39-47.12,10.05-5.79,22.87-9.49,34.29-5.74Z"/>
    <path class="cls-1" d="M339.2,257.3c2.8,6.14,10.86,54.11,3.8,54.37-3.83-3.54-1.74-8.87-2.93-13.67-2.63-10.62-9.62-19.34-16.02-27.86,0-3.2,12.74-14.57,15.15-12.84Z"/>
    <path class="cls-1" d="M250.06,91.08c4.34,3.64-20.75,10.9-22.64,11.34-9.08,2.08-18.05,3.8-27.21.72,3.31-4.13,9.52-4.95,14.1-7.79,3.63-2.25,6.92-7.9,11.15-8.56,5.49-.85,17.14,7.29,24.6,4.28Z"/>
  </g>
  <g>
    <g>
      <path class="cls-1" d="M153.08,543h29.7c.42,0,.75-.36.75-.8l-.52-30.72c0-.44.32-.79.74-.8l16.58-.22c.42,0,.75.35.75.79v80.58c0,.43-.34.79-.75.79h-15.76c-.41,0-.74-.35-.75-.78l-.26-34.79c0-.43-.34-.78-.75-.78h-29.72c-.41,0-.75.36-.75.79l.26,34.76c0,.44-.33.79-.75.79h-15.49c-.41,0-.74-.34-.75-.77l-1.06-80.61c0-.43.32-.79.73-.8l16.55-.31c.42,0,.76.35.76.79l-.26,31.29c0,.44.33.79.75.79Z"/>
      <path class="cls-1" d="M406.81,522.5c0,.65-.5,1.16-1.11,1.15l-34.75-.68c-.43-.01-.78.35-.78.8v18.69c0,.45.34.81.76.8l26.4-.27c.42,0,.76.36.76.8v11.44c0,.45-.35.81-.77.8l-26.38-.55c-.42,0-.77.35-.77.8v22.19c0,.44.34.8.76.8h35.13c.42,0,.75.36.76.8l.04,11.75c0,.44-.34.8-.76.8h-51.59c-.42,0-.76-.36-.76-.8l.23-80.88c0-.44.34-.8.76-.8l50.99.38c.6,0,1.08.52,1.08,1.15v10.83Z"/>
      <path class="cls-1" d="M308.74,591.98l-.27-68.16c0-.35-.27-.64-.61-.64l-22.21.13c-.33,0-.6-.28-.61-.63l-.15-11.91c0-.36.27-.65.61-.65l62.64.29c.33,0,.6.29.6.64v11.62c.01.35-.26.64-.6.64l-22.65-.13c-.33,0-.61.28-.61.64l-.27,68.16c0,.35-.27.64-.6.64h-14.68c-.33,0-.6-.28-.6-.64Z"/>
      <path class="cls-1" d="M429.35,510.43l-.55,66.84c0,.16.12.29.28.29l35.86.05c.15,0,.27.13.28.29l.22,15.1c0,.06-48.4-.36-52.51-.39-.15,0-.28-.13-.27-.29l.82-81.88c0-.16.13-.29.28-.29h15.32c.15,0,.28.13.28.29Z"/>
      <path class="cls-1" d="M253.99,510.69c-32.18-5.22-56.77,26.87-44.63,56.37,7.65,18.6,24.86,28.13,44.97,24.02,41.77-8.53,43.27-73.32-.34-80.39ZM251.26,577.63c-32.91,7.3-36.84-53.75-5.23-54.3,27.71-.49,30.58,48.68,5.23,54.3Z"/>
    </g>
    <g>
      <path class="cls-1" d="M477.78,419.75l14.37,60.93c.04.16.26.16.3,0l16.33-61.08c.04-.16.18-.28.35-.29,1.86-.11,12.46-.74,16.53-.39.29.02.53.23.61.53,1.43,5.39,14.54,54.86,16.12,60.79.04.16.26.15.3,0l15.15-60.77c.02-.07.08-.12.15-.12h16.95c.1,0,.17.09.16.18-.77,6.81-22.95,72.79-25.13,79.26-.1.31-.38.51-.7.51l-15.03.06c-.33,0-.62-.22-.71-.54l-16.84-57.06c-.04-.15-.26-.15-.3,0l-16.15,57.73c-.08.31-.35.52-.66.51l-14.56-.12c-.36,0-.68-.25-.79-.6l-24.32-78.93c-.15-.5.21-1.01.71-1.02l16.43-.17c.35,0,.66.24.74.6Z"/>
      <path class="cls-1" d="M93.61,495.77c0,.27-.18.51-.44.59-24.18,7.45-60.88,4.5-67.19-25.31-5.94-28.03,13.38-54.31,41.63-52.56,5.3.33,17.1,1.77,20.36,2.18.35.04.59.36.53.71-.31,1.92-1.24,7.82-1.78,11.74-.13.99-1.05,1.67-2.03,1.52-10.11-1.58-24.04-4.67-33.51,3.56-13.93,12.11-10.53,40.64,7.78,46.96,2.43.84,17.25,2.88,18.69.59.67-1.07-1.07-21.12-1.96-26.02-.07-.38.22-.72.61-.72h16.69c.34,0,.62.28.62.62v36.15Z"/>
      <path class="cls-1" d="M403.84,499.99l.05-81.67,49.7-.06c.34,0,.62.29.63.65l.28,11.52c0,.38-.28.68-.64.68l-33.06-.18v20.15l27.41.19c.37,0,.67.32.66.71l-.14,11.63c0,.39-.31.7-.68.69-5.79-.15-27.25-.27-27.25-.27v22.74l37.29-.53c.2,0,.37.17.37.38v12.86c0,.21-.16.38-.37.38l-54.27.14Z"/>
      <path class="cls-1" d="M319.27,418.26c.32,0,.6.22.68.54,1.43,5.35,16.77,62.18,16.77,62.18l18.15-62.26c.05-.17.19-.28.36-.28h16.43c.26,0,.45.27.36.53-2.37,6.75-26.63,75.92-28.36,80.48-.11.28-.36.47-.65.47l-15.41.07c-.3,0-.57-.2-.67-.5l-26.4-80.08c-.16-.48.18-.98.66-.98l18.09-.17Z"/>
      <path class="cls-1" d="M293.5,419.34l-.18,11.61c0,.49-.39.89-.86.89l-32.89-.2v22.97l26.13-.56c.38,0,.69.31.69.71v12.33c0,.4-.31.72-.69.71l-26.13-.56-.27,32.22c0,.29-.23.52-.5.52h-15.7c-.28,0-.5-.24-.5-.53l.27-81.03h49.77c.48,0,.87.41.86.91Z"/>
      <path class="cls-1" d="M201.64,418.93l-1.08,66.74c0,.38.29.69.66.68l33.74-1.03c.75-.02,1.37.61,1.37,1.39l.03,11.89c0,.78-.6,1.41-1.35,1.4l-50.21-.51c-.35,0-.63-.3-.63-.67l-.05-79.91c0-.37.29-.67.64-.67h16.23c.36,0,.65.31.64.68Z"/>
      <path class="cls-1" d="M397.03,418.97v80.22c0,.44-.34.8-.76.8h-16.01c-.42,0-.76-.35-.76-.79l-.54-79.95c0-.39.3-.71.67-.72l16.7-.27c.38,0,.69.32.69.71Z"/>
      <path class="cls-1" d="M174.71,440.17c-19.32-37.79-73.58-23.9-75.76,17.46-1.38,26.19,18.47,44.99,44.54,42.35,27.49-2.78,43.3-36.18,31.22-59.82ZM153.44,480.11c-10.01,10.78-26.11,7.14-33.07-5.05-10.61-18.58.3-49.6,25.09-42.06,17.96,5.47,19.57,34.63,7.98,47.11Z"/>
    </g>
    <g>
      <path class="cls-1" d="M198.23,370.51l7.03,25.2,7.85-25.25c.02-.07.09-.12.16-.12l10.27-.03s.09.04.09.08c.1.85,2.17,30.01,2.45,33.91.02.23-.17.43-.4.43h-7.07c-.22,0-.39-.17-.4-.39l-1.14-26.35s-7.88,23.37-8.86,26.33c-.08.25-.32.41-.58.4l-5.5-.17c-.25,0-.46-.16-.54-.4-.99-2.85-6.5-20.43-8.17-25.35-.18,4.44-1.71,23.06-1.83,25.66,0,.17-.15.3-.31.29l-7.1-.02c-.18,0-.33-.16-.31-.34.3-3.08,3.1-30.85,3.39-33.74.01-.14.13-.24.27-.25l10.43-.09c.12,0,.23.08.27.2Z"/>
      <path class="cls-1" d="M321.06,371.02l15.23,23.93-.81-23.62c0-.26.2-.47.46-.47h6.73c.25,0,.46.21.46.46l-.23,33.16c0,.2-.16.36-.36.36-1.18,0-4.97,0-6.51,0-.2,0-.39-.1-.49-.28-5.05-8.33-15.67-23.86-15.67-23.86l.39,23.73c0,.16-.12.28-.28.28h-6.76c-.15,0-.28-.13-.28-.28l.08-33.33c0-.14.12-.26.26-.26h7.49c.12,0,.23.06.3.16Z"/>
      <path class="cls-1" d="M243.03,370.34h6.33c.24,0,.43.19.43.43,0,1.98.04,10.27,0,12.54,0,.3.32.6.57.43,3.94-2.69,9.84-10.95,11.16-13.22.17-.3.5-.46.84-.44l6.35.43c.51.03.76.65.4,1.02-2.95,3.1-12.15,12.88-11.7,13.55.13.2,11.57,16.49,13.22,19.31.11.18-.03.41-.24.41h-7.78s-7.41-11.18-9.44-13.03c-1.56-1.43-3.51-3.81-3.46-.92.07,3.82.47,11.84.56,13.6,0,.19-.14.35-.33.35h-6.98c-.18,0-.33-.15-.33-.33.02-3.21.02-28.48.02-33.3,0-.47-.1-.82.37-.82Z"/>
      <path class="cls-1" d="M375.16,369.99l-.41,4.96c-.04.44-.41.76-.85.74-1.7-.09-5.65-.29-6.86-.28-10.29.13-15.15,10.02-9.79,18.03,4.15,6.21,9.36,3.95,13.17,3.95.57,0,0-6.23-.35-10.22-.02-.28.18-.51.46-.52l6.79-.26c.07,0,.12.04.13.11.18,1.67.3,14.73.28,16.08,0,.48-6.67,1.54-7.72,1.62-6.27.49-11.71-.03-16.69-4.09-12.93-10.55-4.54-30.21,11.21-31.5,1.1-.09,7.58.35,9.88.51.45.03.78.42.74.87Z"/>
      <path class="cls-1" d="M229.5,380.48c-1.26,0,1.32-3.12,1.36-4.97s-1.24-3.41-1.14-4.91c.43-6.65,14.44-2.52,5.98,5.94-1.11,1.11-5.64,3.95-6.2,3.95Z"/>
      <path class="cls-1" d="M399,368.3c-24.46.84-22.89,37.31-.08,36.23,23.72-1.13,22.1-36.99.08-36.23ZM397.28,398.14c-3.51-.48-6.56-4.69-7.4-6.4-3.68-7.5,1.54-18.72,11.05-16.95,10.99,2.04,10.36,25.27-3.65,23.36Z"/>
      <path class="cls-1" d="M297.86,370.76c-.09-.25-.33-.42-.59-.42-1.62-.02-7.27-.07-9.69-.07-.27,0-.51.17-.61.42l-13.3,33.57c-.09.22.08.46.32.46h7.96c.21,0,3.29-8.66,3.63-9.62.02-.05.07-.09.12-.09.95-.02,9.54-.09,11.44-.11.22,0,.4.15.43.36.26,1.5,2.09,7.43,2.6,9.09.08.26.32.43.59.43l7.72-.06c.25,0,.43-.25.35-.49l-10.96-33.48ZM287.34,389.45c-.23,0-.39-.21-.32-.43l4.31-12.1c.12-.34.61-.34.73,0,.81,2.35,2.8,8.17,3.88,11.73.12.38-.18.76-.58.74-2.04-.09-6.57.02-8.03.06Z"/>
    </g>
  </g>
</svg>