<?xml version="1.0" encoding="UTF-8"?>
<svg id="Layer_1" data-name="Layer 1" xmlns="http://www.w3.org/2000/svg" viewBox="0 0 1000 440">
  <defs>
    <style>
      .cls-1 {
        fill: #fff;
      }
    </style>
  </defs>
  <g>
    <path class="cls-1" d="M239.36,331.5h52.68c.74,0,1.33-.64,1.32-1.42l-.93-54.5c-.01-.77.57-1.41,1.31-1.42l29.41-.39c.74,0,1.34.62,1.34,1.39v142.96c-.01.77-.61,1.39-1.34,1.39h-27.96c-.73,0-1.32-.62-1.32-1.38l-.46-61.72c0-.76-.6-1.38-1.32-1.38h-52.72c-.73,0-1.33.63-1.32,1.4l.46,61.67c0,.77-.59,1.4-1.32,1.4h-27.47c-.72,0-1.31-.61-1.32-1.37l-1.88-143c-.01-.77.57-1.4,1.3-1.41l29.35-.55c.74-.01,1.35.62,1.35,1.4l-.46,55.5c0,.77.59,1.41,1.32,1.41Z"/>
    <path class="cls-1" d="M689.49,295.12c0,1.14-.89,2.07-1.96,2.05l-61.65-1.21c-.76-.03-1.38.62-1.38,1.42v33.15c0,.79.61,1.43,1.35,1.42l46.83-.49c.75,0,1.35.63,1.35,1.42v20.29c0,.8-.62,1.44-1.37,1.42l-46.8-.97c-.75-.02-1.37.63-1.37,1.42v39.36c0,.79.6,1.42,1.34,1.42h62.33c.74,0,1.34.64,1.34,1.43l.07,20.84c0,.79-.6,1.43-1.34,1.43h-91.53c-.74,0-1.34-.64-1.34-1.43l.42-143.49c0-.79.61-1.42,1.35-1.42l90.46.67c1.06,0,1.92.92,1.92,2.05v19.22Z"/>
    <path class="cls-1" d="M515.5,418.39l-.47-120.92c0-.63-.48-1.13-1.08-1.13l-39.4.23c-.59,0-1.07-.49-1.08-1.12l-.27-21.12c0-.63.48-1.15,1.08-1.15l111.12.51c.59,0,1.07.51,1.07,1.13l.02,20.61c0,.63-.48,1.14-1.08,1.13l-40.19-.23c-.59,0-1.07.5-1.08,1.13l-.47,120.92c0,.62-.48,1.13-1.07,1.13h-26.04c-.59,0-1.07-.5-1.07-1.13Z"/>
    <path class="cls-1" d="M729.47,273.71l-.97,118.57c0,.29.22.52.49.52l63.62.08c.27,0,.49.23.49.51l.39,26.79c0,.1-85.87-.64-93.15-.7-.27,0-.49-.24-.49-.52l1.45-145.26c0-.28.22-.51.49-.51h27.19c.27,0,.49.23.49.52Z"/>
    <path class="cls-1" d="M418.37,274.18c-57.09-9.26-100.71,47.66-79.17,100,13.58,33,44.09,49.91,79.78,42.62,74.11-15.14,76.76-130.08-.61-142.62ZM413.54,392.94c-58.39,12.95-65.36-95.35-9.28-96.34,49.16-.87,54.25,86.36,9.28,96.34Z"/>
  </g>
  <g>
    <path class="cls-1" d="M815.39,112.85l25.5,108.09c.07.29.46.29.54,0l28.97-108.36c.08-.29.32-.5.61-.52,3.3-.2,22.1-1.32,29.32-.7.52.04.95.42,1.08.93,2.53,9.56,25.8,97.32,28.59,107.84.07.28.46.27.53-.01l26.87-107.81c.03-.13.14-.21.27-.21h30.07c.17,0,.3.15.28.32-1.37,12.09-40.72,129.14-44.58,140.61-.18.55-.68.9-1.24.91l-26.66.1c-.58,0-1.1-.39-1.27-.96l-29.87-101.23c-.08-.27-.45-.27-.53,0l-28.66,102.42c-.15.54-.63.91-1.17.91l-25.83-.21c-.64,0-1.21-.44-1.4-1.07l-43.15-140.02c-.27-.89.36-1.79,1.27-1.8l29.14-.29c.62,0,1.17.43,1.32,1.06Z"/>
    <path class="cls-1" d="M133.86,247.7c0,.48-.31.91-.77,1.05-42.9,13.22-108,7.98-119.2-44.9-10.54-49.72,23.74-96.35,73.85-93.25,9.4.58,30.34,3.14,36.11,3.87.62.08,1.04.65.94,1.26-.55,3.41-2.2,13.87-3.15,20.83-.24,1.75-1.86,2.96-3.61,2.69-17.94-2.81-42.65-8.28-59.44,6.31-24.72,21.48-18.68,72.1,13.8,83.31,4.3,1.49,30.6,5.11,33.15,1.05,1.19-1.9-1.9-37.47-3.47-46.17-.12-.67.4-1.28,1.08-1.28h29.6c.61,0,1.1.49,1.1,1.1v64.14Z"/>
    <path class="cls-1" d="M684.21,255.19l.1-144.89,88.17-.11c.61,0,1.11.51,1.12,1.15l.5,20.44c.02.67-.49,1.21-1.13,1.21l-58.66-.33v35.74l48.62.33c.66,0,1.18.57,1.17,1.26l-.25,20.63c0,.69-.55,1.24-1.2,1.23-10.28-.27-48.35-.47-48.35-.47v40.33l66.16-.94c.36,0,.66.3.66.68v22.81c0,.38-.29.68-.65.68l-96.28.25Z"/>
    <path class="cls-1" d="M534.18,110.2c.56,0,1.06.39,1.21.96,2.53,9.49,29.74,110.31,29.74,110.31l32.2-110.45c.09-.3.35-.5.64-.5h29.14c.47,0,.79.48.63.94-4.2,11.97-47.25,134.69-50.3,142.77-.19.5-.65.83-1.16.83l-27.34.13c-.54,0-1.02-.35-1.19-.89l-46.83-142.06c-.28-.85.32-1.73,1.17-1.74l32.09-.3Z"/>
    <path class="cls-1" d="M488.47,112.12l-.31,20.59c-.01.88-.7,1.58-1.53,1.57l-58.35-.35v40.76l46.36-.99c.68-.01,1.23.56,1.23,1.26v21.87c0,.71-.55,1.28-1.23,1.26l-46.36-.99-.48,57.15c0,.51-.4.93-.89.93h-27.85c-.49,0-.89-.42-.89-.94l.48-143.75h88.3c.85,0,1.54.73,1.52,1.62Z"/>
    <path class="cls-1" d="M325.5,111.39l-1.91,118.4c-.01.68.52,1.23,1.17,1.21l59.86-1.83c1.33-.04,2.43,1.07,2.44,2.47l.05,21.1c0,1.38-1.07,2.49-2.39,2.48l-89.08-.91c-.62,0-1.12-.54-1.12-1.19l-.08-141.76c0-.66.51-1.19,1.13-1.19h28.79c.63,0,1.15.54,1.13,1.21Z"/>
    <path class="cls-1" d="M672.13,111.46v142.31c0,.78-.6,1.42-1.35,1.42h-28.39c-.74,0-1.34-.63-1.35-1.41l-.95-141.83c0-.7.53-1.27,1.19-1.28l29.63-.49c.67-.01,1.22.56,1.22,1.27Z"/>
    <path class="cls-1" d="M277.73,149.07c-34.27-67.04-130.53-42.4-134.4,30.98-2.45,46.46,32.77,79.82,79.02,75.14,48.77-4.94,76.81-64.18,55.38-106.12ZM240.01,219.93c-17.76,19.13-46.31,12.67-58.66-8.96-18.82-32.96.53-88,44.5-74.61,31.87,9.7,34.71,61.43,14.16,83.57Z"/>
  </g>
  <g>
    <path class="cls-1" d="M319.46,25.49l12.48,44.7,13.93-44.79c.04-.12.15-.21.28-.21l18.21-.06c.08,0,.15.06.16.15.18,1.51,3.86,53.24,4.35,60.15.03.41-.3.76-.71.76h-12.55c-.38,0-.7-.3-.71-.68l-2.01-46.75s-13.97,41.46-15.71,46.7c-.15.44-.56.73-1.03.71l-9.76-.29c-.44-.01-.82-.29-.96-.7-1.76-5.05-11.53-36.24-14.5-44.98-.32,7.88-3.04,40.92-3.24,45.51-.01.3-.26.52-.56.52l-12.6-.04c-.33,0-.58-.28-.55-.61.54-5.46,5.49-54.73,6.01-59.86.03-.25.23-.43.48-.44l18.5-.16c.22,0,.42.14.48.36Z"/>
    <path class="cls-1" d="M537.36,26.4l27.02,42.46-1.44-41.91c-.02-.46.35-.84.81-.84h11.95c.45,0,.81.37.81.81l-.41,58.84c0,.35-.28.64-.64.64-2.09,0-8.81,0-11.55,0-.36,0-.69-.18-.87-.49-8.96-14.77-27.8-42.32-27.8-42.32l.7,42.1c0,.28-.22.5-.5.5h-12c-.27,0-.5-.22-.5-.5l.15-59.12c0-.25.21-.46.46-.46h13.29c.21,0,.41.11.53.29Z"/>
    <path class="cls-1" d="M398.94,25.19h11.24c.42,0,.77.34.77.76.02,3.52.06,18.22,0,22.24,0,.53.57,1.06,1.01.77,6.99-4.77,17.45-19.43,19.8-23.46.31-.52.88-.82,1.48-.78l11.27.76c.91.06,1.34,1.15.71,1.82-5.23,5.5-21.56,22.84-20.76,24.04.24.36,20.53,29.25,23.46,34.25.19.33-.05.73-.43.73h-13.81s-13.15-19.83-16.74-23.12c-2.77-2.53-6.22-6.76-6.13-1.63.12,6.77.83,21,.99,24.13.02.34-.25.62-.59.62h-12.38c-.33,0-.59-.26-.59-.59.03-5.69.04-50.53.04-59.08,0-.84-.17-1.45.66-1.45Z"/>
    <path class="cls-1" d="M633.34,24.56l-.73,8.81c-.06.77-.73,1.35-1.5,1.31-3.01-.16-10.03-.52-12.17-.5-18.25.23-26.88,17.78-17.37,31.99,7.37,11.01,16.61,7.01,23.37,7.01,1,0,0-11.06-.63-18.14-.04-.49.33-.9.82-.92l12.05-.47c.12,0,.22.08.23.19.31,2.96.53,26.14.5,28.53-.01.85-11.83,2.73-13.69,2.87-11.11.86-20.78-.05-29.61-7.26-22.93-18.72-8.05-53.59,19.89-55.89,1.95-.16,13.44.62,17.53.91.8.06,1.39.75,1.32,1.55Z"/>
    <path class="cls-1" d="M374.94,43.19c-2.24,0,2.34-5.54,2.41-8.82s-2.19-6.05-2.02-8.71c.77-11.8,25.62-4.47,10.62,10.53-1.98,1.98-10,7-11,7Z"/>
    <path class="cls-1" d="M675.64,21.58c-43.4,1.49-40.61,66.2-.14,64.27,42.08-2,39.2-65.62.14-64.27ZM672.57,74.5c-6.22-.85-11.63-8.31-13.13-11.36-6.53-13.31,2.73-33.21,19.61-30.08,19.5,3.62,18.37,44.83-6.48,41.43Z"/>
    <path class="cls-1" d="M496.2,25.93c-.16-.45-.58-.75-1.05-.75-2.88-.03-12.9-.12-17.2-.12-.48,0-.91.3-1.09.75l-23.6,59.56c-.16.39.14.82.56.81h14.11c.38,0,5.84-15.37,6.45-17.06.03-.09.12-.15.22-.16,1.69-.04,16.93-.16,20.3-.19.38,0,.7.27.77.64.47,2.66,3.71,13.19,4.62,16.13.14.46.56.77,1.04.77l13.7-.11c.45,0,.76-.44.62-.87l-19.45-59.4ZM477.54,59.09c-.4.01-.69-.38-.56-.76l7.65-21.47c.22-.61,1.08-.61,1.29,0,1.44,4.17,4.97,14.49,6.89,20.81.2.68-.32,1.35-1.02,1.32-3.61-.16-11.66.03-14.25.1Z"/>
  </g>
</svg>